<?xml version="1.0" encoding="UTF-8"?>
<svg id="Camada_5" data-name="Camada 5" xmlns="http://www.w3.org/2000/svg" viewBox="0 0 1920 200">
  <defs>
    <style>
      .cls-1 {
        fill: #212121;
      }

      .cls-2 {
        fill: #ff5000;
      }
    </style>
  </defs>
  <path class="cls-2" d="M1644.48,125.58c5.24,0,12.85-1.44,16.07-3.25.8-.44,1.23-.95-.82-.86-3.29.15-8.97.45-12.6.44-7.65-.02-12.43-.67-10.22-1.85,3.87-.4,6.92-.14,11.68-.26,5.01-.11,8.25-.31,13.26-.4,11.31-.21,14.01-1,11.36-1.29-14.1-.29-46.95,1.07-47.04-1.12-.05-.71.91-.97,1.62-.99,14.68-.3,39.2,1.02,49.32-.3,1.72-1.1-12.04-.44-18.92-.65-2.13-.07-5.98-.19-6.1-.76-.26-.64,3.95-.27,6.24-.31,1.72-.03,3.59-.08,4.56-.28.67-.14,1.06-.99.07-.96-9.1,0-18.19-.05-27.29-.02-2.32.01-4.55-1.56.48-1.81,8.2-.42,26.51-.64,34.28-.96,1.87-.07,3.33-.23,3.48-1-.3-1.18-2.05-1-3.28-1.03-12.3-.4-24.1.02-36.4.38-1.83.05-4.23-.33-5.93-1.03-4.73-2.67,23.62-3,35.49-2.39,3.14.16,6.34.42,9.4-.34.3-.08.64-.19.77-.47.33-.65-.67-1.15-1.4-1.21-6.48-.55-19.6.58-19.44-1.64.41-1.98,18.01-.67,24.51-1.45,1.29-.16,2.88-.58,3.1-1.86-.4-1.61-6.53-1.03-9.84-.93-9.05.29-32.03.81-32.15-1.08-.25-1.47,3.73-1.26,5.72-1.24,8.34.08,16.57.07,24.88-.37,5.98-.32,7.16-.96,4.02-1.44-7.51-.44-14.04-.87-21.56-.75-1.95.04-4.81.02-6.44-1.03-1.78-1.67,19.6-.77,29.42-1.5,1.96-.14,3.93-.29,5.84-.76.43-.61-.58-1.18-1.32-1.24-2.65-.22-15.36.74-15.42-.23-1.44-1.5,9.96-1.09,11.33-1.26,2.11-.26,3.68-.52,3.2-1.85-1.59-2.1-35.58.05-53.37-.75-.67-.02-1.59-.58-1.16-1.09,19.1-.57,38.19-1.14,57.29-1.7.91-.02,1.88-.07,2.65-.57.76-.5,1.19-1.65.62-2.37-.43-.54-1.2-.63-1.88-.68-3.56-.27-27.33,1.43-26.36-.64,0-.96,19.54-1.13,21.5-.91.8.08,1.6.11,2.4.07,5.45-.27,4.6-1.77,1.51-1.63-15.69-.77-47.02,1.44-47.11-.5-.56-1.12,2.29-1.12,3.57-1.18,13.26-.52,23.88-1.04,36.49-.58,2.1.07,15.72-.33,15.89-1.59-.21-1.65-22.85-.31-23.33-1.87-.64-1.57,11.29.55,11.12-1.67.85-.71-32.12.83-31.78-.32-.23-.69.79-1.08,1.52-1.09,4.11-.05,8.23-.11,12.34-.17,7.41-.1,14.81-.2,22.21-.3,1.42-.02,2.76.02,2.74-.37-3.44-8.19-8.57-14.46-15.92-18.91-10.66-6.46-41.65-14.53-62.9,9.31-7.69,8.64-19.02,37.2,1.97,58.95,9,9.33,23.27,11.89,36.01,11.9ZM1639.12,62.28c.86-.58,10.82-.69,10.82-.69,3.42-.1,6.06-.16,6.01.39-.03.35-.6.47-2.98.65-5.41.4-9.09.28-11.73.46-2.65.17-2.99-.23-2.13-.8Z"/>
  <path class="cls-2" d="M1673.54,100.91c-1.54.25-.77,1.19,1.04,1.19s5.83-.15,8.51-.15,5.16-.19,5.19-.54c.06-.54-2.19-.71-5.02-.69,0,0-8.05-.08-9.72.19Z"/>
  <path class="cls-2" d="M1664.2,123.46c-.6.12-.3.59.4.59s2.25-.08,3.29-.08,1.99-.1,2.01-.27c.02-.27-.85-.36-1.94-.35,0,0-3.11-.04-3.76.1Z"/>
  <path class="cls-2" d="M1682.92,67.4c1.11,0,3.58-.15,5.22-.15s3.17-.19,3.19-.54c.04-.54-1.34-.71-3.08-.69,0,0-4.94-.08-5.97.19-.95.25-.47,1.19.64,1.19Z"/>
  <g>
    <path class="cls-1" d="M1919.83,68.95c-.39.57-.24,1.6-.37,2.27-.36,1.73,0,3.46-1.12,4.99-.37.51-.87.93-1.15,1.49-.27.53-.32,1.14-.37,1.72-.17,2.02-.34,4.05-.51,6.07,1.07-1.77.53-4.15,1.54-5.96.54-.97,1.49-1.67,2.01-2.65.06-.11.1-.22.15-.33v-7.77c-.09.08-.15.14-.17.17Z"/>
    <path class="cls-1" d="M1902.35,16.45c.33-.14.53-.47.56-.83.04-.55.33-1.12.7-1.55.57-.68,1.33-1.17,1.89-1.85,1.02-1.24,1.5-3.16,3.05-3.55,1.15-.29,2.3.47,3.49.47.87,0,1.69-.4,2.46-.8,1.39-.71,2.77-1.42,4.15-2.13.49-.25.99-.51,1.34-.94h.01v-3.07c-1.95.68-4.31,1.87-6.36,2.21-3.65.6-7.74-.69-10.46,1.92-.18.18-.35.36-.52.54,0,0-2.82-.03-3.71.25-2.11.65.21,1.44-.49,2.97-.9,1.97-4.38,5.27-5.45,7.92-.37.92-.72,1.92-1.52,2.51-.7.51-1.61.61-2.37,1.03-1.27.68-1.93,2.17-2.11,3.6s.03,2.89.04,4.33c.03,2.28-.48,4.66-1.95,6.4-.2.23-.41.46-.47.75-.09.47.24.89.55,1.25.73.32.68-.4,1.06-.54.4-.16.89.07.98.5.12.57-.11,1.16-.15,1.99-.05,1.08-.11,2.15-.25,3.22-.44-.06-.64-.16-.27-.48.63-.54-1.61-.44-2.45-.74-.49-.16-1.03-.14-1.51.06-1.04.43-2.19.61-3.32.49-.6-.06-1.36-.13-1.68.39-.1.16-.13.35-.25.5-.14.18-.39.24-.61.29-.75.17-3-.06-2.26.51.56.37,1.12.04,1.5.45.39.41.65.92,1.07,1.3.68.6,1.72.63,2.52.23.02.01.05.02.08.03.26.17.48.42.54.72.02.1.02.2.06.29.1.19.38.29.37.5.09.19.52.09.72.24.2.15.33.28.44.51.02.05.05.1.09.13.04.02.09.02.14.03.5.01,1.01.02,1.52.02.4,1.22.24,2.81,1.18,3.71.33.31.74.49,1.17.63-.63,3.03-1.23,6.05-1.8,9.08h-.01s-.02.86-3.23,5.3c-3.21,4.43-2.41,7.38-2.41,10.52,0,1.97.41,3.9.43,5.81-.21.31-.42.61-.61.9-1.65,2.47-2.36,3.06-10.12,9.39-3.74,3.04-4.96,3.57-5.31,3.54-.02.09-.05.21-.1.36-.42,1.26-.72,3.84-.89,5.74-2.53,4.68-1.2,8.87-2.62,15.05-.04-.01-.08-.01-.13-.01-.52,0-1.2.64-1.92,1.6,0,0-.83.51-1.79,1.04-.96.53-2.05,1.07-2.55,1.14-1,.15-1-2.54-2.41-2.14-1.4.4-1.4,2-4.4,4.01-.5.33-.96.55-1.39.7-.21-2.74-.33-5.15-.32-8.05,4.13.42,8.39-.54,11.93-2.7.62-.37,1.29-.96,1.14-1.66-.23-.46-.76-.34-1.04.03-.23.28-.34.84-.68.98-1.67.7-3.59.81-5.32.25-1.42-.46-2.66-1.32-3.87-2.19-1.11-.81-1.09-.77-2.17-1.6-.29-2.34-.31-3.69-.51-5.57,2.1,1.52,4.57,1.03,7.09.4.7-.18,1.41-.4,1.95-.87.54-.48,1.1-1.11.59-1.93-.27-.32-.58-.2-.83-.01-.45.34-.38.87-.63.97-.87.37-1.85.5-2.8.4-1.53-.17-2.96-.86-4.21-1.76-.58-.42-1.31-1.48-1.72-2.06-.27-2.42-.41-3.36-.54-5.17,2.11.45,4.42-.13,6.09-1.5.43-.62-.12-1.05-.68-1.05-.49,0-.4.63-.57,1-.08.19-.44.26-.54.26-1.61.02-3.22-.37-4.7-1.02-1.83-.81-4.35-2.09-5.18-3.9-.32-.69-.49-1.42-.59-2.17.3.06.63.09.83.06.3-.04-.77-.71-.94-1.53-.03-.68-.02-1.37-.03-2.04-.01-.81-.39-1.92-.42-2.89-.03-1.32-.02-2.53-.32-2.53s-.36,1.6-.43,2.7c-.06,1.1-.3,1.76-.31,2.72-.01.7,0,1.41-.03,2.11,0,0-.25.45-.57.84-.32.4-.6.43-.5.57.09.13.19.28.52.13.21-.1.28-.12.44-.12-.1.74-.28,1.46-.59,2.15-.84,1.81-3.35,3.09-5.18,3.9-1.27.56-2.64.93-4.02,1-.21.02-.84.05-1.12-.27-.3-.34-.02-.8-.46-1.1-.97-.66-1.71.76-.89,1.18,1.67,1.37,3.98,1.95,6.09,1.5-.21,1.91-.32,2.92-.74,5.76-.4.58-.95,1.05-1.52,1.47-1.25.9-2.68,1.59-4.22,1.76-1.12.12-2.31.18-3.28-.36-.17-.1.15-.6-.3-1.04-.15-.15-.51-.31-.67.04-.28.66.05,1.45.59,1.93.54.47,1.25.69,1.95.87,2.52.63,4.99,1.12,7.09-.4-.2,1.88-.22,3.23-.51,5.57-1.09.83-1.06.79-2.17,1.6-1.21.87-2.45,1.73-3.87,2.19-1.77.57-3.73.61-5.43-.13-.21-.1-.22-.65-.43-.95-.35-.48-.89-.69-1.18-.18-.15.7.52,1.29,1.14,1.66,3.54,2.16,7.8,3.12,11.93,2.7.02,4.2-.25,7.36-.63,11.99-.98,1.61-1.33,2.08-2.29,2.83-.2-.4-.41-.79-.66-1.16-.25-.37-.54-.74-.95-.92-.77-.32-1.62.13-2.45.21-3.29.34-4.89-4.86-8.2-4.99-.27-.79.59-1.54,1.37-1.86,1.3-.54,1.84-1.19,2.2-1.92.15-.01.3-.04.42-.13.17-.12.26-.34.41-.49.51-.52,1.41-.06,2.1-.27.27-.08.51-.43.3-.61.31-.1.63-.21.93-.33.17-.06.36-.16.37-.34.01-.27-.37-.33-.64-.39-.38-.1-.66-.4-.99-.61-.7-.44-1.59.05-2.23.61-.12.1-.74-.12-.89-.14-1.26-.14-1.16.48-1.72.63-.66.17-3.71-.46-1.93.42.09.27-.38.5-.29.78.25.76,1.74.89,2.96.9-.3.31-.64.55-1.06.65-.51.12-1.04,0-1.56.06-.62.08-1.18.5-1.5,1.04-.2.36-.71.38-.92.03-.9-1.44-1.77-3.12-2.9-4.2-.76-.74-1.87-.6-2.65-1.31-.3-.27-.6-.55-.9-.82.17-.2.38-.36.65-.42.53-.12,1.04.21,1.52.49.47.27,1.08.5,1.53.2.34-.22.46-.66.73-.96.34-.38.9-.51,1.39-.39.48.12.1.49.4.89-.1.09.69.35,1.18.25.68-.16,1.6-.37,1.31-.74,1.08-.55,1.58-2.62-.44-3.23-.3-.09-1.31-.09-1.59-.24-.38-.19-2.7-.45-3.66-.84-1.15-.47-.96-1.07-1.11-1.26-.35-.41-.52-.95-.78-1.42-.26-.48-.67-.94-1.21-1-.4-.04-.78.15-1.18.18-.91.06-1.69-.57-2.67-.45-.11.01-.22.03-.32.09-.14.09-.22.25-.3.41-.47.97-1.18,2.04-2.27,2.1-.46.02-.9-.15-1.36-.2-.46-.04-1.01.1-1.19.52.15.21.44.22.68.18.25-.05.49-.14.73-.09s.46.34.32.54c-.77.83-2.35-.32-3.25.37-.57.44-.69,1.51-1.41,1.52-.17.01-.36-.07-.52,0-.18.07-.26.27-.39.41-.33.39-.94.39-1.43.23-.49-.15-.96-.42-1.47-.45-.59-.03-1.45.11-1.67.55.1.34,1.06.28,1.61.23.31-.03.65-.11.94.04.19.09.32.26.47.4.43.4,1.05.57,1.62.43.17-.04.34-.11.52-.09.17.02.36.16.34.33-.72.39-1.53.59-2.34.59-.32-.01-.58.25-.54.56.05.37-.03.77-.24,1.08-.32.5-.95.79-1.55.71-.33-.04-.64-.19-.97-.24-.71-.11-1.46.28-1.78.92.98.4,2.06.58,3.12.5.92-.06,1.86-.32,2.77-.12.58.13,1.19.43,1.73.19.09-.04.17-.1.24-.17,1.99.71,4.06,1.18,6.17,1.38,2.82.27,5.71.08,8.47.73.36.08.75.2,1,.47.26.27.34.65.44,1,.59,2.09,1.93,3.97,3.72,5.2.62.43,1.3.79,1.9,1.25,1.8,1.37,2.83,3.57,3.23,5.8.1.52.16,1.05.2,1.58l-8.58,1.31s-.03.03-.04.04c-.07-.08-.2-.04-.42.16-.08.08-.2.23-.35.42-2.44,1.96-3.52,4.21-4.12,6.67-.64,1.09-1.25,2.14-1.76,2.98-.51.85-.91,1.49-1.13,1.78-1.23,1.62-3.73,2.93-3.97,5.1-.12,1.06.38,2.16.04,3.17-.36,1.06-1.49,1.61-2.21,2.47-.72.86-.62,2.61.5,2.63,1.07-.01,1.07,1.55,1.73,1.8-.85,2.96-1.49,7.03-2,10.66-.52,3.63-.93,6.82-1.34,8.03-.16.47-.32.97-.48,1.48-23.02-1.01-35.52-3.65-41.99-4.86-11.29-2.11-35.88,5.3-64.11-1.06-28.24-6.35-88.95-2.11-126.36-7.05-18.67-2.47-55.99.55-90.61,3.93-1.51-2.54-3.34-5.69-4.2-7.4-1.59-3.18-5.65-6.18-13.94-10.59s-9.88-1.76-9.88-1.76c0,0-14.65-3-18.88-5.12s-19.35-9.29-28.88-14.06-12.06-3.59-12.06-4.47-6.71-3.53-7.59-3.53-6,7.41-6.71,8.82c-.47.94-6.76,4.36-10.94,6.55-.53-1.71-.99-3.26-1.35-4.55-8.3-29.78-13.94-19.01-18.04-33.19-4.16-14.4-10.25-20.5-17.08-21.61-6.83-1.11-8.2-13.24-15.72,0-7.52,13.24-15.03,15.46-18.45,31.26-3.1,14.33-29.43,52.69-34.27,59.66-14.62-.17-26.64-.3-26.64-.3,0,0-52.42-2.24-63.71-1.81-9.85.37-56.4,7.73-68.15,6.73-.12-.12-.28-.2-.46-.21l-2.24-.02h-.86c-3.62-3.91-10.05-10.21-17.64-17.36.07-.72.2-1.44.22-2.17,0-.22.11-1.24-.11-1.36-.11-.07-.73-.04-.73.18-.35-1.21-.72-2.12-1.49-3.13-1.43-1.88-2.86-3.76-4.31-5.64-.42-.55-.85-1.1-1.29-1.63-.38-.46-.77-.94-1.23-1.34.05-.03.1-.06.15-.09.06-.04.1-.09.12-.15-.15-.2-.3-.41-.45-.61-.49-.67-.96-1.35-1.34-2.09-1-1.77-2.03-3.52-3.1-5.25-.12-.2-.25-.4-.37-.59-.06-.11-.12-.22-.18-.32-.05-.08-.1-.16-.15-.24-.05-.09-.1-.19-.14-.28.42-.24.85-.48,1.27-.71.13-.08.2-.23.2-.38,2.68-1.68,5.28-3.49,7.79-5.42.38-.29.75-.58,1.12-.88.12-.09.24-.19.34-.3-.03-.33-.18-.64-.44-.85-.01-.01-.04-.03-.05-.03-.01-.02-.03-.03-.05-.04-.03,0-.05-.03-.07-.04-.01,0-.02,0-.03,0h0c-.05-.02-.1-.03-.14-.04-.02-.01-.03-.01-.04-.01h0s-.03-.01-.05-.01c-.33.19-.65.44-.96.65-1.49.99-2.96,2.02-4.46,3.01-.84.55-1.68,1.09-2.54,1.61-.5.3-1,.58-1.5.87.2-.29.41-.57.6-.86.12-.18-.02-.4-.19-.45-.28-.09-.55-.18-.83-.26-.16-.05-.31.07-.36.22-.07.24-.15.48-.22.73-.07.17-.13.35-.19.52,0-.03-.01-.06-.01-.09-.01-.36.03-.77-.05-1.12-.04-.18-.14-.35-.28-.45-.02-.17-.05-.34-.07-.51-.02-.13-.03-.26-.05-.39.07-.03.14-.06.21-.1-.02-.31-.1-.63-.16-.93-.03-.17-.05-.36-.08-.54.09-.05.18-.09.26-.15,0-.06-.02-.09-.03-.16-.01-.06-.02-.13-.02-.19-.02-.13-.02-.25-.04-.38-.02-.23-.05-.46-.08-.69.18-.07.34-.18.42-.41.14-.38.17-.81.23-1.21.11-.85.2-1.7.25-2.56v-.15c.17-.1.32-.22.46-.35.01.01.03.01.04.01.39-.04.77-.15,1.14-.26.33-.1.7-.19.9-.5.03-.04.05-.07.07-.11.14-.04.27-.09.41-.14.15-.05.3-.11.44-.17.29-.11.58-.22.87-.33.07-.03.12-.09.12-.17.03-.6.02-1.21-.01-1.82,0-.02-.01-.05-.01-.08.17-.09.34-.17.51-.26.05-.02.1-.05.14-.07,0-.01,0-.01,0-.01.39-.18.77-.38,1.11-.64.27-.19.49-.41.67-.7.1-.16.16-.33.18-.5l.09-.09c.05-.06.12-.09.18-.1.23-.2.48-.38.73-.57.27-.22.56-.43.84-.64.57-.42,1.15-.83,1.72-1.24.58-.42,1.15-.83,1.73-1.26.28-.21.56-.42.84-.64.25-.19.5-.41.77-.59-.01-.04-.01-.07-.03-.11.37-.09.73-.23,1.07-.39.41-.17.79-.42,1.14-.69.23-.18.42-.36.52-.64.09-.23.08-.48.05-.73-.01-.07-.03-.13-.05-.2-.04-.13.25-.65.25-.85.01-.05,0-.09,0-.13-.03-.28-.16-.51-.43-.66-.03-.02-.07-.03-.11-.04.03-.16.01-.33-.07-.48-.11-.18-.32-.29-.54-.29-.01,0-.02,0-.03,0,0-.21-.1-.4-.28-.5-.15-.08-.33-.09-.48-.04-.07.03-.14.06-.2.09-.05-.1-.11-.2-.2-.27-.02-.02-.05-.04-.08-.06-.07-.04-.14-.08-.22-.09-.23-.06-.47.02-.66.15-.36-.31-.74-.61-1.1-.92-.16-.14-.33-.28-.5-.42.03-.05.05-.09.07-.14.03-.05.04-.1.06-.15.05-.05.1-.1.14-.15,0-.04,0-.07.01-.11l.03-.12v-.11c-.01-.05-.02-.09-.04-.13,0-.02,0-.03-.02-.05-.01-.03-.01-.06-.02-.1-.01-.09-.09-.15-.17-.16t-.01-.02c-.06-.07-.14-.13-.22-.17,0-.05.02-.09.03-.13.02-.14,0-.28-.11-.38-.09-.09-.24-.14-.37-.1-.11.03-.21.08-.31.12-.02-.19-.06-.39-.11-.58-.04-.13-.16-.23-.3-.22-.12,0-.24.04-.35.08,0-.04,0-.08-.01-.12-.02-.29-.24-.46-.53-.41-.33.05-.65.23-.92.45-.14-.11-.28-.22-.42-.34-.21-.17-.43-.35-.66-.49.09-.19.18-.39.22-.59.06-.24.04-.52-.15-.71-.22-.23-.55-.26-.83-.1-.25.13-.48.34-.68.55-1.26-1-2.55-1.97-3.85-2.9-2.37-1.69-4.82-3.26-7.32-4.75-2.51-1.5-5.06-2.92-7.63-4.29-1.29-.7-2.59-1.38-3.88-2.05-1.38-.71-2.76-1.44-4.17-2.09-1.43-.66-2.88-1.28-4.36-1.82-.58-.21-1.17-.42-1.77-.6-.75.05-1.5.14-2.24.26-.26.07-.52.15-.77.23.37.12.75.24,1.13.35.73.23,1.45.48,2.16.74,1.39.52,2.76,1.12,4.13,1.78,2.72,1.29,5.38,2.71,8.03,4.12,2.57,1.37,5.12,2.76,7.62,4.23s4.95,3.01,7.33,4.66c.59.41,1.18.82,1.75,1.25.14.1.29.2.43.31.06.05.13.1.19.14.04.03.07.05.1.08.02.01.03.02.03.02.01.01.02.01.03.02.28.21.56.42.84.64.4.31.81.63,1.21.96-.01.02-.03.04-.04.06-.1.17-.19.34-.27.52-.1.22-.22.45-.22.69,0,.31.21.58.51.65.31.08.57-.09.8-.28.16-.13.31-.28.45-.43.28.25.57.49.86.73-.01.06-.02.11-.02.17-.13.23-.15.48-.18.74-.03.23-.1.46-.2.66-.03.06-.07.11-.1.16-.1,0-.21.03-.28.07-.18.11-.34.23-.49.37-.02.09-.05.17-.12.22-.38.32-.75.66-1.11,1.01-.03.04-.07.06-.11.08-.15.15-.3.3-.45.45-.6.61-1.19,1.23-1.78,1.86-.11-.21-.29-.37-.46-.54-.39-.38-.71-.85-.9-1.37-.2-.51-.32-1.07-.38-1.62.1-.26.2-.52.31-.78.03-.09.07-.18.09-.28-.01,0-.01-.01-.02-.01-.16-.17-.31-.36-.44-.55-.12-.18-.23-.37-.32-.57-.03-.06-.06-.12-.09-.19-.08,0-.17.03-.24.1-.13.11-.24.22-.35.35-.15-.4-.35-.77-.6-1.12.57-.98.59-2.25.61-3.38,0-.09-.13-.09-.14,0-.02.16-.03.32-.05.48-.03.12-.06.24-.09.37,0-.17-.02-.33-.04-.49-.03-.22-.06-.45-.11-.67-.06-.25-.15-.5-.22-.75-.03-.11-.19-.06-.16.04.09.43.13.9.15,1.34.02.44-.01.88-.11,1.31-.08.38-.21.75-.4,1.08-.22-.22-.46-.42-.72-.59.15-.24.29-.47.43-.71.01-.01.02-.03.03-.05-.21-.12-.41-.24-.62-.37-.02.02-.04.05-.06.07-.15.23-.3.46-.45.68-.02,0-.03-.01-.05-.02.11-.29.22-.58.32-.87h0c-.14-.1-.27-.18-.41-.27-.03.02-.05.04-.07.08-.13.29-.26.58-.39.87-.09-.03-.18-.05-.26-.07.13-.36.26-.73.39-1.1-.07-.05-.14-.09-.2-.14-.17.4-.33.8-.5,1.19h-.04c-.23-.44-.51-.85-.81-1.24l-.21.12c.25.35.46.71.64,1.08-.13,0-.26,0-.39,0-.09-.13-.17-.26-.25-.39-.11-.17-.2-.35-.32-.52-.14.08-.28.16-.42.24.07.19.17.38.27.56.03.06.07.12.1.18-.1.02-.2.04-.3.07-.17-.19-.34-.38-.52-.57-.18.1-.35.2-.53.29.11.18.22.36.34.53-.22.1-.45.22-.66.36,0,0-.01,0-.01-.02-.33-.36-.6-.77-.82-1.2-.22-.43-.37-.89-.47-1.37-.12-.49-.21-1.04-.13-1.54.03-.18-.24-.25-.27-.07-.1.57-.2,1.11-.15,1.69-.01-.03-.02-.06-.03-.09-.03-.1-.05-.19-.08-.29-.03-.12-.12-.26-.14-.39-.02-.14-.24-.14-.22,0,.01.12-.02.24-.03.36,0,.13.02.25.03.37.02.24.06.48.12.72.09.46.26.9.48,1.32.2.37.45.71.75,1,.05.05.11.1.16.15-.05.05-.1.1-.14.15-.37.41-.71.89-.88,1.42-.01.02-.02.05-.02.07-.21-.22-.45-.41-.72-.57-.12-.08-.26-.11-.38-.08-.02.13-.05.25-.09.38-.11.3-.25.6-.42.87-.16.25-.34.5-.53.74.03.07.08.14.15.17.3.15.58.36.81.61.02.04.04.07.06.11.05.01.09.04.13.08-.1.23-.18.47-.28.69-.15.32-.32.62-.52.91-.38.55-.87,1.02-1.44,1.38-.29.19-.73.32-.85.68-.13.45.29.75.59,1,.59.51,1.24.95,1.93,1.33.23.12.46.24.7.35-.08.05-.16.11-.23.17-.13-.12-.27-.22-.42-.3-.24-.11-.61-.22-.86-.11-.16.07-.22.24-.3.38-.08.12-.16.24-.24.36-.16.23-.33.46-.52.68-.18.22-.38.43-.58.64-.03.04-.06.07-.1.11-.58.55-1.1,1.17-1.54,1.84-.95,1.4-1.56,3.05-1.76,4.73-.04.29-.06.57-.07.86.01.25.04.49.08.74.05.27.11.54.19.8.12.25.26.48.45.65.02-.02.05-.04.06-.07.03-.03.13-.18.18-.25.05-.09.11-.19.17-.28.01.02.01.04.01.05.05.19.1.38.18.56.08.19.18.38.29.55.04.08.08.15.11.22.08.15.17.29.27.43.01.02.03.04.04.05.03.03.05.07.08.1.06.06.11.13.17.19.04.04.08.07.11.11.04-.03.07-.06.1-.1.11-.19.22-.38.32-.57.07,1.15.37,2.31.68,3.4.23.75.5,1.5.8,2.22.08.31.16.63.24.94-.1-.01-.21.02-.32.07-.1,0-.2.06-.27.16-.13.19-.16.41-.18.64-.01.21-.02.43-.03.65-.02.47-.04.95-.06,1.43,0,.05.02.11.04.16-.21.15-.4.32-.57.51-11.42-9.98-21.37-18.11-25.17-19.95-.86-.41-1.78-.82-2.73-.74-1.95.16-3.1,2.17-4.21,3.8-.67.99-1.73,1.96-2.82,2.31-1.28.42-2.33,1.36-2.73,2.65-1.3,4.24-3.91,8.27-8.34,6.95-.55-.17-1.08-.43-1.59-.72-8.6-5.01-15.75-12.08-22.82-19.07-5.63-5.58-11.26-11.16-16.89-16.74-6.06,7.92-13.14,15.05-21.02,21.17-5.69,4.4-12.13,8.78-15.97,14.6-2.81,4.25,6.5,13.99-5.42,3.37-.96-.85-8.5-4.57-9.15-5.68-1.46-2.52-3.45-5.94-6.34-4.71-.61.26-1.12.71-1.54,1.22l-5.08,6.21c-.99,1.21-2.11,2.51-4.39,1.53-.88-.37-1.62-1.01-2.19-1.77-4.58-6.05-9.16-12.11-13.74-18.16-1.5-1.98-3.51-4.19-5.97-3.79-.84.13-1.6.57-2.34,1.01-7.47,4.43-14.83,9.05-22.07,13.85-1.46.82-2.36-2.05-4.36-1.18-1.18.83-1.55,2.99-3.1,3.81-3.34,1.76-6.68,3.52-10.02,5.28-5.78,3.05-12.96,6.08-18.47,2.57-1.41-.9-2.92-2.24-4.5-1.7-.83.28-1.4,1.03-1.94,1.73-3.23,4.17-7.27,7.71-11.81,10.4-2.25,1.33-4.24,2.81-6.31,4.37-.41-.38-.8-.78-1.21-1.17-.27-.26-.51-.56-.77-.84l-1.88-2.05c-.23-.25-.49-.49-.73-.73-.25-.24-.48-.48-.74-.7l-.92-.81c-.33-.3-.69-.55-1.03-.84-.24-.2-.47-.4-.72-.57-.73-.51-1.43-1.02-2.17-1.48-1.36-.89-2.78-1.67-4.22-2.39-5.81-2.85-12.1-4.49-18.44-5.38-1.59-.21-3.18-.38-4.79-.49-.8-.05-1.6-.09-2.42-.11l-2.38-.03-9.47-.17c-2.59-.06-5.18-.12-7.77-.19v-1.83h-2.57v-3.3h-6.39v-44.02h20.11v-7.53h-20.11v-14.16c8.11-.66,15.76-1.53,22.89-2.54v-4.35c3.95-.46,7.8-.96,11.52-1.48v-6.05c-20.09,2.13-42.45,3.51-66.73,3.49-23.92-.02-45.96-1.39-65.81-3.49v6.05c3.9.55,7.74,1.04,11.53,1.48v4.35c7.92,1.12,15.56,1.94,22.89,2.54v14.16h-20.12v7.53h20.12v44.02h-6.47v2.59c-2.25-.4-4.48-.91-6.68-1.53-2.01-.57-4.25-.26-6.2-1.01-1.19-.01-2.37-.04-3.54-.08-1.25-1.21-2.47-2.39-3.37-3.28-.91-.88-1.51-1.46-1.51-1.46,0,0-9-5.29-14.12-6.53-5.11-1.23-7.94-4.06-9.53-4.76-1.58-.71-5.82-7.77-8.64-11.47-2.83-3.71-4.24-3.18-6.89-4.59-2.64-1.41-10.94-8.12-11.64-8.82-.71-.71-3.36-2.47-9.53-3.08-6.18-.61-6.71-4.86-9.53-5.57-2.83-.71-4.06-5.82-4.06-5.82,0,0-2.82-1.06-3.35-.89-.4.14-10.54,12.09-15.57,18.05l-16.82-35.28c-.5-1.06-3.41-4.02-4.15-3.11-5.68,7.03-23.45,33.22-27.35,32.62-4.54-.7-7.02,5.5-27.19,17.24l-2.82,1.73c-7.43,4.93-15.43,13.41-22.59,22.22-3.43-2.73-8.12-6.65-8.58-7.87-.7-1.88-7.82-14.3-10.41-15.71-2.59-1.41-4.94-2.11-7.29-4.23-2.36-2.12-4.71-7.3-6.36-8.71-1.64-1.41-14.59,10.59-14.59,10.59l-13.41,9.87s-24.94,16-25.64,17.77c-.71,1.77-10.2,20.68-12.09,22.32-.36.31-.71.78-1.06,1.34l-11.09,17.85-47.06.55-2.03-.12c.07-.22.12-.69-.43-1-.48-.28-1.41-.35-2.3-.23l.26-1.61s.34-.26,1.51-.49c1.17-.23,2.34-2.34,1.24-3.82-1.1-1.47-.95-1.03-.74-2.23.21-1.21-.42-.73-2.38-3.01-1.95-2.28-.16-1.55-.51-2.5.35-1.27.2-3.28.2-3.28,3.33.58,5.3-.54,5.3-.54.04-1.01-.71-1.86-.71-1.86.34-.49.71-3.33.84-4.11.51.51,1.02,1.02,1.39,1.36l.68-.62s-.56-.68-1.47-1.57c.29-.25.49-.47.1-.75-.58-.42-1.32-.85-1.35-.74-.02.1-.05.18-.1.24-.24-.21-.5-.42-.76-.62.13-.14.23-.22.23-.22l-.18-.33c-.23.19-.41.36-.55.52-1.89-1.63-9.3-7.87-13.01-9.26.24.17,4.12,2.95,7.68,5.63-.16.02-.32.08-.48.19-.06.04-.11.08-.16.12,0,0-.63-.42-1.19-.42-.35,0-.68.16-.82.69-.36,1.38-.2,1.98-.2,1.98,0,0-.28.62-.82.78-.54.16-.45.44-.45.44l.99.6s-.53,1.18-.38,1.22c.15.05.79.14.58.98-.06.23-.02.44.08.63-.76.3-1.3.58-1.41.8-.44.81-.55,4.06.19,5.42.75,1.36-1.06,1.17-1.11,2.46,0,0-1,.41-2.74,2.61-1.74,2.19-3.2,4.71-4.28,5.46-1.84,1.28-1.49,3.24-1.49,3.24,0,0-.48,1.77-1.26,2.01,0,0-2.43-.68-2.72.84h-51.97l-20.59,3.17s-20.64-.53-64.94,0c-44.29.53-68.29-5.14-72.35-5.84-4.06-.69-34,0-34,0v35.54h1920v-29.39c-6.33,4.04-17.82,9.96-57.32,12.92-6.33.47-12.34.86-18.03,1.16.97-2.75,2.4-7.62,3.65-11.28,1.35-3.96,3.25-1.65,4.63-7.27.2-.83.48-18.37,2.08-24.91,1.74-7.1,5.04-3.61,7.02-15.44.86-5.11,5.43-1.84,6.3-6.97.88,1.97,1.62,4.03,1.62,5.37,0,3.31.3,5.99,2.7,3.74,1.76-1.63,1.28-4.78,1.71-7.77l.65-2.48c.1-.24.22-.48.35-.71,1.88-3.21,3.75-4.76,5.41-8.45,3.02,1.01,5.83,1.83,6.72,1.04.01,1.59-.16,3.08-.73,4.7-.81,2.29-1.09,1.06-2.35,2.8-1.26,1.74.23,5.15.42,6.13.09.44-.32,2.84-.8,5.38-.16.26-.32.55-.49.92-.87,1.89-.67,1.39-1.07,3.68-.4,2.29-1.99,2.49-1.99,3.88s.69.5,1.09,2.49c.4,1.99-1.99,2.59-.69,3.39,1.29.79,2.68-.6,3.38,1.59s-.2,1.29.7,4.28c.89,2.99-1.6,2.19-1.7,4.68-.09,2.49-1.09,5.28,0,6.17,1.1.9.1-2.89,1.4-4.48.48-.59.99-.34,1.45.21-1.01,2.52-1.56,5.17-.16,5.1.91-.05.99-1.86,1.16-3.38.24.55.39,1,.39,1,0,0,1.92,2.66,1.34-2.23-.13-1.11-.7-1.79-.3-3.98.11-.6.06-1.3-.06-2.02,0-.99-.07-2.07-.28-3.22-.75-4.21,1.95-3.46,3.01-6.46,1.05-3.01,1.35-3.01-1.06-7.53-2.4-4.5,0-3,0-5.55,0-.75.2-2.07.49-3.61.53-.25,1.13-.71,1.49-1.17.75-.97-2-1.9.19-3.6,2.19-1.69,3.39-3.08,3.49-4.97.1-1.9,1.19-2.49,2.49-3.79,1.29-1.29,1.89-2.69.69-3.48-.72-.48-1.07-.67-1.16-1.05,0-.08-.01-.15-.02-.23.01-.22.07-.5.18-.91.07-.24-.07-.55-.33-.9-.04-.58-.07-1.08-.04-1.44.1-1.53.72-1.65.13-2.95-.07-.15-.11-.36-.12-.62.15-.15.28-.42.35-.91.29-2.25,1.2-3.01,1.5-4.51.3-1.5-.3-4.05-.15-6.01v-.02c.16-1.93,2.25-1.05,2.78-4.4.53-3.36-1.58-7.46-1.42-10.62s.29-2.86-1.81-4.68c-2.11-1.83-1.81-4.64-4.06-8.41-2.26-3.77,1.35-3.6.89-5.53-.47-1.94,2.86-1.83,1.97-3.48-.91-1.66-1.51-5.56-1.93-8.88.19-.69.4-1.36.62-2.03.39-.19.91-.25,1.47-.42.55-.17,1.14-.47,1.64-1.15,1.65-2.26.9-2.1,3.1-2.86,2.21-.75.81-1.8.15-4.51-.66-2.7,1.11-1.2,2.16-3.16,1.06-1.95,3.01-1.2,3.91-2.86.21-.38.4-1.1.56-1.98.86-.47,1.74-.89,2.65-1.28-.09,1.13-.14,2.27-.31,3.38-.17,1.1-.46,2.17-1.01,3.14-.35.61-.8,1.16-.98,1.83-.37,1.3.32,2.65.55,3.99.23,1.33-.44,3.12-1.8,3.02-.93-.06-1.69-1.05-2.63-.74-.7.24-1.01,1.04-.82,1.75.28,1.08,1.27,1.66,2.19,2.17l-.38.1c-1.4.34-.48,1.46-1.18,2.57-.91,1.46-3.13,3.12-2.31,4.83.3.63.6,1.39.25,2-.6,1.05-2.5.58-2.84,2.12-.27,1.15-.38,1.28.79,1.42.56.07.49-1.05.95-1.3.97-.51,3.28.44,3.61-.64.48-1.51.41-3.14.74-4.68.32-1.89,4-1.28,5.67-2.52-.32.89-.66,1.83-.66,2.77,0,.16,0,.33.03.49.14,1.1.62-.11,1.74-.13,1.6-.11,1.77.38,1.91-.86.35-3.1.12-6.63,2.23-8.94.62-.67,1.31-1.3,1.9-2h0c.12-.08.23-.14.34-.19v-2.38s-.04.07-.07.11c-.43.55-1.55,1.16-1.55,1.16-.86.32-1.67.76-2.4,1.32,1.35-2.38,2.06-5.1,2.06-7.82,0-.21,0-.42,0-.63-.05-1.29-.25-2.59-.07-3.87.22-1.59,1.01-2.98,2.04-4.23v-9.44c-.12.08-.24.15-.36.23-1.06.73-1.95,1.71-3.09,2.3-.42.22-.88.39-1.35.35-.44-.03-.84-.23-1.26-.32-.93-.18-1.94.22-2.49.99-.97,1.34-.63,3.65-2.14,4.31-1.68.72-3.81-1.52-5.24-.38-.78.61-.68,1.79-.87,2.76-.07.42-.33.85-.66,1.14-.48.43-1.21-.01-1.13-.65.06-.5,0-1.04.08-1.55.06-.5.43-1.03.86-1.22ZM1880.89,47.22c-.07.02-.16.03-.2-.02-.03-.03-.03-.08-.04-.13-.05-.25-.31-.42-.34-.67,0-.06,0-.12-.02-.17-.02-.05-.07-.09-.12-.13-.09-.07-.19-.14-.28-.22.51-.23,1.09-.25,1.58-.02,0,.25,0,.5-.07.74-.08.26-.25.51-.51.62ZM1882.22,47.95c-.13,0-.27,0-.39-.05-.23-.09-.36-.33-.57-.44.12-.12.25-.24.32-.39.05-.12.06-.25.07-.38,0-.2.03-.41.05-.62v-.08s.1.07.15.11c.11.1.2.21.26.34.07.16.09.35.18.51.11.19.32.3.49.43.2.16.34.34.47.54-.34.01-.68.02-1.03.03ZM1062.21,113.83c.1-.11.2-.23.3-.34.05-.06.09-.12.1-.18.4-.45.81-.89,1.19-1.35.4-.48.77-.97,1.14-1.47.17-.23.41-.51.5-.79.03-.1.03-.21,0-.3.02-.02.03-.04.04-.07.57.07,1.17-.1,1.6-.47.43.36.86.73,1.28,1.1-.13.16-.25.34-.32.52-.02.04-.03.07-.05.11-.49.5-.47,1.48.13,1.87-.01.03-.02.06-.04.09-.02.01-.05.02-.07.04-.27-.26-.6-.2-.9-.01-.62.38-1.24.76-1.86,1.13-.63.37-1.26.74-1.89,1.1-.32.18-.63.36-.95.54-.08.04-.15.09-.23.14-.16.08-.32.17-.47.28-.02.01-.03.02-.04.03-.09.05-.17.1-.26.14-.03.02-.05.05-.07.07-.12.04-.23.07-.34.1-.03,0-.06.02-.09.03-.03,0-.05-.02-.07-.03.46-.76.91-1.52,1.37-2.28ZM267.38,143.35c.12.31.26.58.4.74.44.53-.73,2.5-.73,2.5-.46-.42-1.97,1.13-2.73.46-.76-.68-1.8.11-1.73-.39.06-.5,3.26-1.4,3.26-1.4.13-.43.14-.87.1-1.26.45-.17.97-.42,1.43-.65ZM262.42,138.43l.53-.26c1.47,1.14,2.79,2.19,3.61,2.93-.17.29-.17.47-.17.47l.33.16c.04-.12.09-.24.15-.34.02.02.05.05.08.07.07.08.17.19.29.31-.14.1-.16.38-.11.71-.36.16-.86.34-1.43.41-.05-.14-.09-.22-.09-.22-.44-.06-1.43.09-2.59.35-.75-1.03-1.08-1.66-1.08-1.75.01-.09.35-1.59-1.32-2.07,0,0,.09-1.65,1.8-.77ZM260.32,138.1c-.38.68-.48,1.4-.84,1.38-.52-.02-.3-1.51.84-1.38ZM262.43,166.52c-.45.56-.47,1.04-.42,1.32l-11.75-.71h-1.73c.03-.24.03-.56-.07-.88,0,0,.9-.89,1.64-1.87,1.42-1.9,1.3,1.6,4.78-1.59,3.48-3.18,2.35-.9,4.34-1.11,2-.2,3.19-1.15,3.04-.1-.15,1.04-1.6,1.59-.92,2,.67.41,1.44,1.05,1.44,1.05l-.35,1.89ZM469.87,101.29s0-.04,0-.06c0,.02,0,.04,0,.06ZM469.87,101.35s0,.04-.01.06c0-.02,0-.04.01-.06ZM469.84,101.47s-.02.04-.03.05c0-.02.02-.04.03-.05ZM469.78,101.59s-.02.03-.04.05c.01-.02.03-.03.04-.05ZM469.72,100.97s.05.05.07.08c-.02-.03-.04-.05-.07-.08ZM469.82,101.11s.02.04.03.07c0-.02-.02-.04-.03-.07ZM469.68,100.93s-.09-.08-.15-.12c.06.04.1.08.15.12ZM466.5,103.75c-.08.1-.13.2-.16.3.02-.1.08-.2.16-.3ZM466.8,103.46c-.11.09-.2.17-.28.26.07-.09.17-.18.28-.26ZM467.82,100.07c-.16-.05-.32-.1-.5-.15.18.05.35.1.5.15ZM469.47,100.76s-.08-.06-.13-.08c.05.03.09.06.13.08ZM469.25,100.62s-.1-.05-.15-.08c.05.03.11.05.15.08ZM468.97,100.49c-.06-.03-.12-.05-.19-.08.07.03.13.05.19.08ZM468.65,100.35c-.07-.03-.15-.06-.23-.09.08.03.16.06.23.09ZM468.26,100.21c-.09-.03-.19-.06-.29-.09.1.03.2.06.29.09ZM469.2,102.09s-.01,0-.02,0c0,0,.01,0,.02,0ZM468.74,102.36s0,0,0,0c0,0,0,0,0,0ZM468.14,102.67c-.12.06-.24.12-.36.19.12-.06.24-.12.36-.19ZM467.7,102.9c-.15.08-.3.16-.44.25.14-.08.29-.17.44-.25ZM467.21,103.18c-.13.08-.26.17-.37.25.11-.08.24-.17.37-.25ZM378.2,168.24l-39.79-.67c-.45-.06-14.95-.25-18.58-.24.06-.47.11-.89.31-1.14,1.53-1.89,1.77-3.18,3.53-4.12,1.77-.94,10.59-13.88,10.59-13.88l4.7-13.18,7.13-7.2,10.29-8.33s14.11-10.37,16.94-11.07c2.82-.69,10.3-1.52,12.89-7.4,2.59-5.88,5.11.32,6.53,1.5,1.41,1.18,4.58.97,6.7,1.21,2.11.23,8.76,4.53,8.29,10.17-.47,5.65,6.23,9.3,6.23,9.3l10.08,3.95c-11.53,14.6-20.43,29.19-20.43,29.19l-6.94,11.91h-18.47ZM526.96,120.36c-2.23,1.06-13.41,9.89-24.23,15.06-7.37,3.52-8.77,1.61-14.94,3.97-2.9,1.11-6.74,4.81-12.95,7.44-19.41,8.24-12.96,3.96-17.9,5.61s-1.39.04-13.51,5.22c-4.7,2.01-6.34,2.72-6.79,2.93-.01.01-.03.01-.04.02-.14.04-.33.12-.58.22-3.53,1.42-1.88.95-9.88,4.36-8,3.41-25.3,3.05-25.65,3.05h-3.24c.86-.65,2.4-1.94,4.95-4.49.74-.74,1.09-1.09,1.22-1.22-.12.09-.36.31-.41.33.09-.19,1.75-2.03,9.78-10.41,16.59-17.29,19.41-22.23,20.47-22.59.68-.22,11.35-8.27,18.93-14.02-2.69,6.95-1.57,6.18-4.4,10.55-2.85,4.41-2.14,3.97-3.52,5.21-1.38,1.25-2.63,1.92-2.95,3.29-.32,1.37-1.41,2.93-.94,4.01.47,1.08,1.1,2.51,1,3.47-.11.97-.58,5.57-.58,5.57l1.49.35s.45-4.49,1.02-6.89c.57-2.4-4.3-3.31,3.31-8.41s8.24-6.28,8.43-7.08c.19-.8-.8-4.3.45-6.54,1.25-2.24.92-3.89,5.33-8.29,3.61-3.6,4.77-5.02,5.27-6.24,1.12-.95,2.3-1.98,3.47-3.02,0,0,.02-.02.03-.02,2.68-2.38,5.33-4.88,7.08-6.88,4.94-5.64,11.29-13.41,12.71-15.17.89-1.13,9.18-10.29,15.09-16.8,1.79-1.98,3.4,10.29,4.32,12.8l13.76,21.64,10.03,19.33c-2.3,1.61-4.63,3.17-5.62,3.64ZM594.98,122.58c-.38-.72-.77-1.41-1.19-2-1.57-2.22-4.53-2.99-5.97-3.24-.22-1.13-.83-3.34-2.35-3.92-2.08-.78-2.31-1.06-4.11-3.7-1.8-2.65-.3-.25-1.33-1.1-1.03-.84-.81-1.46-2.06-3.03-1.25-1.57-1.71-2-2.1-2.12-.39-.12.49,1.32,2.97,7.15s2.78,3.17,4.41,5.3c.85,1.11,1.67,2.29,2.36,3.3l-1.07-.4c-6.18-2.18-12.48-3.44-18.77-4.44-6.31-.97-12.63-1.62-18.96-2.05-4.5-.3-5.81.03-8.47.27l-8.21-17.24.73-.73s.53-1.94,1.24-2.12c.7-.17,3-1.94,4.76-3,1.77-1.06,2.65-3.53,3.89-6.25,1.23-2.72.88-4.16.88-4.16l2.12,3.18s7.58,1.94,13.94,3.53c6.35,1.59,7.58,1.59,13.23,4.41,5.65,2.82,3.88,5.29,7.41,7.94,3.53,2.65,5.3,3.35,7.42,8.29,2.11,4.95,8.11,6.18,9.7,7.24,1.59,1.06,7.41,3.18,9.18,4.76,1.76,1.59,13.76,5.12,13.76,5.12,0,0,2.51,1.45,5.53,3.64-12.19-.56-22.81-2.97-28.93-4.65ZM704.24,127.3h-6.39v3.3h-2.57v1.14c-7.97-.22-15.94-.43-23.91-.56-2.51-.04-5.02-.08-7.53-.11v-.47h-2.58v-3.3h-6.31v-44.02h49.29v44.02ZM704.24,75.75h-49.29v-13.64c8.72.55,16.96.78,24.64.78,8.6,0,16.82-.28,24.65-.78v13.64ZM1033.14,173.05s-.02-.03-.02-.05c-.03-.07-.09-.11-.15-.12-.03.05-.05.11-.09.16-.03.05-.07.09-.11.14.03.08.06.15.09.23-.02.03-.05.06-.07.09-.02.01-.03.02-.05.04-.45.31-.92.51-1.42.71-.52.21-1.03.52-1.16,1.11-.04.19-.04.37,0,.56-.08-.02-.15-.04-.23-.05,0-.01-.02-.02-.03-.03-.25-.25-.66-.11-.75.22-.11.38.04.71.25,1.01.41,1.1,1.46,1.91,2.06,2.91.06.09.11.19.16.28l-10.38-.16h-.04c-6.29-.86-12.59-1.54-18.91-2.12-12.64-1.17-25.3-1.86-37.95-2.34-12.65-.47-25.29-.71-37.9-.91-12.62-.21-25.22-.39-37.76-.94l-9.48-.38-9.44-.41-9.43-.46c-3.15-.16-6.29-.32-9.43-.5-3.14-.19-6.27-.38-9.4-.61s-6.25-.49-9.33-.83c-1.54-.18-3.08-.37-4.56-.63-.74-.13-1.48-.27-2.14-.44-.32-.09-.66-.18-.88-.27-.06-.02-.13-.04-.16-.06l-.05-.02s-.03-.02-.1-.05l-.66-.33c-.42-.18-.84-.37-1.24-.51l-.6-.22-.59-.2c-.78-.26-1.56-.49-2.33-.72-1.54-.44-3.07-.86-4.59-1.28-6.07-1.66-12.08-3.39-17.85-5.75-2.88-1.16-5.68-2.5-8.37-4.02-2.45-1.39-4.79-2.97-6.91-4.79,5.3-1.83,10.87-5.63,14.91-8.63,3.79-2.81,8.25-6.23,12.71-4.7,1.48.51,2.73,2.43,4.24,2.01,6.69-1.88,2.54-1.69,4.01-2.27,4.75-1.89,9.5-6.07,14.98-7.32,4.52-1.04,9.81,1.43,13.62-1.2,1.45-1,2.4-2.6,3.78-3.68,2.92-2.28,7.26-1.83,10.48,0,3.22,1.83,5.61,4.79,8.08,7.55,3.83,4.28,8.49,8.48,14.22,8.93,2.31.19,4.69-.27,6.94.3,2.82.7,5.14,2.93,8.03,3.29,2.36.29,4.95-2.18,4.55-4.08-.21-.98.42-1.97,1.37-2.29,1.33-.43-2.12-5.02-.66-4.73,3.09.6,11.2,7.1,13.8,9.02,6,4.41,11.2,10.19,17.99,13.24,6.09,2.75-1.73-3.51-2.8-5.43-1.3-2.34-2.8-4.6-4.46-5.92-2.49-1.97-2.06-3.4.79-4.82.76-3.69-6.44-5.45-3.41-10.24.44-.71,1.04-1.3,1.69-1.82l22.89-17.92c1.42-1.11,2.84-2.22,4.25-3.33.46-.36.95-.73,1.52-.83,1.18-.21,2.21.74,3.02,1.61,10.03,10.76,20.05,21.52,30.07,32.27-2.19-1.55-5.3-.16-7.2,1.74-1.91,1.9-3.39,4.37-5.84,5.49-1.72.79-3.82.87-5.19,2.16-1.38,1.3-.56,4.48,1.23,3.89,5.98-5.03,14.15-7.35,21.88-6.22,2.5.37,5.08,1.07,7.49.3,3.37-1.07,5.19-4.57,7.36-7.36,2.17-2.78,3.35-8.1,9.05-3.2,7.14,3.87-2.97-6.31-2.05-9.76.44-1.66,1.5-3.13,3.04-3.9,3.16-1.57,6.29.47,8.89,2.39,1.83,1.35,7.92,6.74,15.7,13.72-.03.08-.06.16-.08.24-.18.58-.29,1.16-.4,1.75-.13.71-.26,1.42-.37,2.13-.87.4-1.74.8-2.61,1.19-1.53.68-3.05,1.36-4.57,2.04-.71.28-1.41.55-2.12.81-1.85.69-3.73,1.31-5.58,2.01-.09.04-.15.1-.18.18h0c.01.05.02.09.03.13,0,.01,0,.02,0,.03.01,0,.02.03.02.05.02.03.04.06.07.09,0,.01,0,.02.01.02.01.02.02.03.03.04l.08.08s.06.06.09.08c0,.01.02.01.03.02s.03.02.04.03c.07.05.14.09.2.12.01.01.02.01.02.01.02,0,.03.02.05.03.06.03.13.06.21.09,0,.01.04.02.05.03.02,0,.04.01.06.02.04.02.09.03.13.05.05.02.1.03.15.05.16.03.33.04.49.04,1.05.01,2.03-.39,2.99-.78.86-.27,1.71-.58,2.55-.89.57-.21,1.14-.42,1.7-.64.19-.07.38-.14.57-.22,1.26-.48,2.5-1,3.75-1.5-2.28,2.81-5.2,5.02-7.71,7.63-.12.13-.25.28-.34.45,0,.02-.01.07-.01.08v.02s.01,0,.02.02l.03.03s.03.02.04.03t.01.01h.02c.09.03.17.04.26.06h0s.05.01.08.01h.16c.11.01.23,0,.34,0,.14-.01.28-.02.41-.04.02,0,.04-.01.06-.01s.05,0,.06-.01c.06,0,.11-.01.17-.02.29-.05.57-.11.86-.17.21-.05.43-.11.64-.16.74-.57,1.39-1.25,2.03-1.94,1.16-1.24,2.32-2.49,3.48-3.75.15-.12.29-.25.44-.38-.06.3-.12.59-.17.89l-.39,2.04c-.07.39-.13.78-.23,1.16-.04.16.09.3.24.3.44.02.88.02,1.31.03-.02,2.13-.03,4.27-.03,6.4,0,.24,0,.49-.01.74-.07.06-.14.14-.2.24-.07.14-.1.32-.11.48-.01.18.09.44.04.61-.03.11-.12.13-.24.2-.18.12-.37.24-.48.43-.14.23-.15.49-.13.75h0v.1s-.03.03-.04.04c-.32.23-.67.35-.97.62-.29.27-.49.63-.63,1-.2.55-.2,1.18,0,1.73-.13.1-.24.21-.36.31-.24.22-.47.45-.69.68-.44.48-.85.97-1.25,1.48-.69.87-1.34,1.76-1.97,2.67-.39.45-.77.92-1.14,1.39ZM1064.83,178.87c.05.07.1.14.16.2v.03c.01.06.03.12.07.16-.16.01-.32.03-.48.07-.15.04-.18.23-.09.33-.03.12-.02.25,0,.36.02.16.11.25.27.26.3.02.59.04.89.06l-1.61-.02-.82.11s-.88.11-2.32.29h-.03l-24.45-.39h-.01s-.05-.03-.07-.04c-.01,0-.01.01-.01.01-.1-.26-.2-.51-.3-.77-.05-.12-.11-.25-.25-.29-.05-.02-.12,0-.16,0h-.09c-.06-.19-.11-.39-.16-.59h.01c.21-.05.29-.31.17-.48h0s-.01-.05-.01-.07l-.03-.12c-.01-.08-.03-.15-.05-.23-.03-.16-.07-.32-.11-.47-.03-.13-.17-.2-.29-.17t-.02.01c.01-.25.09-.55.21-.82l.06-.03s.08-.07.12-.11t.02-.01c.25.12.46-.18.35-.35.15-.18.29-.37.42-.57,1.82-1.47,3.57-3.02,5.33-4.55,1.19-.11,2.36-.37,3.52-.71.21,0,.42-.01.62-.02.22.05.45.07.67.07.54,0,1.08-.1,1.59-.27,1.06-.38,2.01-1.06,2.73-1.92.76-.92,1.33-1.96,1.82-3.04.39-.88.76-1.78,1.08-2.69.32-.91.53-1.83.73-2.8.33.43.7.84,1.09,1.21.04.07.08.13.12.19.54.81,1.49,1.39,2.11,2.17.71.89,1.33,1.86,2.25,2.55,1.06.78,2.3,2.48,3.81,2.03.44-.13.89-.34,1.31-.57l.03.03c-.02.14-.05.29-.06.43-.04.37-.06.74-.05,1.11-.02.38-.01.77,0,1.16.04.8.14,1.59.25,2.38.12.78.25,1.56.35,2.35.05.36.09.72.12,1.08-.07-.01-.15-.01-.22-.01,0,.01.01.03.01.04,0,.12,0,.25-.01.37.08.02.17.04.25.06-.02.05-.04.11-.06.16-.12.32-.28.62-.43.92-.31.59-.73,1.24-.34,1.91ZM1076.05,180.43c.05-.07.08-.15.09-.23.05-.32-.14-.71-.44-.89-.4-.26-.91-.26-1.38-.33-.15-.02-.29-.08-.42-.15v-.03c.02-.15-.02-.3-.12-.41-.14-.14-.35-.21-.53-.28-.21-.09-.42-.21-.64-.25-.14-.03-.29.08-.29.22-.34-.15-.63-.28-.78-.38-.07-.04-.14-.09-.21-.14.03-.04.07-.09.11-.13.05-.05.07-.11.07-.17-.02-.02-.05-.04-.07-.05-.13-.08-.26-.17-.39-.25-.23-.15-.46-.31-.67-.49-.09.01-.18.04-.26.08-.03.01-.05.03-.07.05-.18-.16-.37-.31-.54-.48.27-.08.23-.55-.1-.54h-.02c.03-.25.05-.5.08-.75.07-.73.14-1.46.21-2.18.04-.64.1-1.27.17-1.91.18-1.54.28-3.09.42-4.64.1-.29.19-.58.28-.87,7.12,6.4,13.39,12.01,17.22,15.31l-11.72-.11ZM1278.88,144.11c3.76-3.76,2.05,2.39-1.71,6.83-3.76,4.44-7.52,8.54-8.88,14.69-1.03,4.64-3.19,8.31-3.49,10.71-2.64-.03-5.29-.06-7.9-.1,7.69-11.01,19.4-29.57,21.98-32.14ZM1301.71,176.92c-3.24-.13-17.28-.33-32.54-.53,1.77-2.35,3.68-6.45,4.92-12.13,2.39-10.93,10.59-13.32,17.42-20.5,6.83-7.17,7.86-8.54,9.22-16.06,1.37-7.52,7.86-6.15,10.93-11.27,1.73-2.88,1.13-4.78-1.48-3.07-2.03,1.33-5.76,6.32-7.4,5.12-3.76-2.73-5.12-4.78-1.37-7.86,3.76-3.07,5.12-3.42,4.78-9.91-.34-6.49,2.73-5.47,8.88-2.05,6.15,3.42,6.83,3.42,12.98,11.62,6.15,8.2,2.05,9.91,4.78,18.11s4.1,21.52,6.49,27.33c2.39,5.81,5.12,14.35,5.47,10.93.34-3.42,1.71-6.83-1.03-12.3-2.73-5.47-2.73-11.96-1.71-13.67,1.02-1.71,2.73-2.73,5.47,1.71s3.76,5.12,3.76,11.96,6.15,8.43,7.17,12.87c.95,4.13.82-10.22,7.75,12.85-25.85-1.54-59.26-2.94-64.52-3.15ZM1394.18,182.25c-4.64-.63-14.07-1.33-25.22-2.02-1.42-4.84-2.88-10.03-4.33-14.18-.6-1.72-1.67-2.13-2.16-3.62-1.75-5.26-.92.23-2.81-5.48-.61-1.83-1.2-3.62-1.76-5.34,2.68-.62,7.23-1.96,9.06-2.45,2.65-.71,7.71-14.18,8.24-11.35.53,2.82,5.53.29,11.88,4,6.35,3.71,1.24,1.82,8.47,5.88,7.24,4.06,4.06,5.71,8.47,7.65,3.28,1.44,4.91,1.23,13.06,2.76,1.49,1.9,3.29,4.2,3.4,4.35.18.26,8.12,3.09,9.97,4.15,1.85,1.06.44,2.47,2.91,1.15,2.47-1.32,3.26.26,2.47-1.32-.79-1.59-2.03-3-3.79-3.35-1.76-.35-.26,2.21-2.65-1.14-.34-.49-.67-.96-.99-1.43,18.1,4.16,12.68.84,14.09.84s4.76,1.06,15.88,8.29c11.12,7.24,2.29,4.06,3,6.18.11.33.44.66.89.98-32.17,3.2-60.79,6.44-68.08,5.45ZM1837.13,89.39s1.62,1.46,2.85,2.29c1.23.84,4.86,1.52,4.96,1.72.1.2-1.43.44-2.2.35-.78-.08-1.91-1.01-2.1-1.05-.19-.04,1.3.97,1.09,1.07-.21.09-1.47.15-1.94,0-.48-.14-2.41-2.77-3-3.69-.61-.91-.53-1.69.34-.69ZM1836.72,90.38c.4.62,1.86,2.15,1.32,2.16-.48,0-1.25-1.64-1.3-1.64,0,.01,0,.03.01.06.13.47.84,1.93,1.29,2.55.45.62-.19.57-.94.24-.75-.33-1.03-3.88-1.03-3.88-.12-.57.26-.11.65.51ZM1825.87,93.63c-.12-.11,3.33-.83,5.24-2.04,1.9-1.2,3.05-2.45,3.05-2.45.56-.55,1.08-1.65,1.31-1.43.22.22-.26,6.09-.58,6.14-.33.05-1.23.15-1.38,0-.15-.15.43-2.68.3-2.63-.13.05-.75,2.6-1.35,2.73-.61.12-2.51.15-2.44,0,.05-.15,2.12-1.9,1.99-1.96-.12-.04-2.1,1.53-3.23,1.76-1.13.23-2.78-.02-2.91-.12ZM1822.73,104.53c-2.32-.2-3.54-.76-3.5-.95.04-.18.58.04,3.06.18,2.48.14,3.34-.8,4.82-1.93,1.3-.98,1.4-1.58,1.74-1.96l.56-.06s.48-3.93.56-4.17c.07-.24.18,0,.37,0,.19-.01-.01.18,0,.58,0,.3-.08,2.32-.13,3.32.44-.02,1.1-.01,2.22-.05,1.86-.08,3.39,0,3.39,0,0,0,1.53-.08,3.39,0,1.86.07,2.48-.04,2.85.19.38.22.79,1.35,2.28,2.48,1.49,1.12,2.52,1.74,5.01,1.6,2.48-.14,3.01-.36,3.05-.18.05.19-1.18.75-3.5.95-2.32.2-3.72-.19-5.07-.77-1.35-.59-.86-.16-.97.14-.11.3-3.19-1.33-4.05-2.23-.85-.91.83,1.98,1.85,2.66,1.02.67-1.56.53-2.86-.4-.88-.63-1.14-2.54-1.45-2.36-.29.18.5,3.04-.53,3.01-1.04.03-.78-2.03-2.1-.58-.74.79-3.77,1-2.75.33,1.03-.68,2.71-3.57,1.86-2.66-.86.9-3.95,2.53-4.06,2.23-.11-.3,2.51-2.68,2.04-2.66-.47.03-1.66,1.93-3.01,2.52-1.35.58-2.75.97-5.07.77ZM1824.61,115.77c1.79-.57,3.98-2.37,3.79-2.64-.19-.26-.86.5-3.05,1.47-2.17.98-3.38.79-5.26.86-1.87.08-2.44-.56-.48-.67,1.95-.11,3.58-.47,5.68-2.02,2.1-1.55,3.41-2.95,3.41-2.95h5.97s7-.06,7.42,0c.4.06.55.72,2.36,2.11,1.8,1.39,2.82,1.96,6.81,2.63,1.42.24,2.16.33,2.5.35-.21,0-.53.04-.85.15-1.09.36-2.67.78-5.3.63-2.63-.15-3.42-1.99-4.32-2.72-.91-.72-1.96-1.61-1.39,0,.55,1.61,3.3,2.83,2.48,2.98-.83.16-1.55-.03-2.82-.75-1.28-.71-3.13-5.11-3.13-3.23s2.15,3.42,1.58,3.68c-.55.27-.26.19-1.76-.3-1.5-.48-1.96-3.49-2.43-3.38-.48.11-.65,3.3-1.59,3.49-.95.19-.87-1.05-2.03-.52-1.17.52-2.94,1.39-2.71.83.23-.57,2.59-3.31,2.22-3.31s-3.04,2.89-4.24,3.31c-1.18.41-4.67.56-2.86,0ZM1830.76,120.17c-.07,1-.17,3.18-.28,5.15-.23.07-.46.16-.69.26.09-1.21.29-3.97.38-4.97.11-1.28.11-2.67.29-2.7.19-.04.42.25.3,2.26ZM1846.8,172.21c-1.05,3.6-3.44,8.55-3.44,12.54-1.77.1-3.51.18-5.22.26.18-1.92.38-3.84.72-5.72.93-5.2,3.48-10.66,8.38-12.62,2.86-2.28.26,3.07-.44,5.54ZM1848.97,140.65c-.9,1.84-1.66,3.72-2.16,5.72-.4,1.62-.63,3.33-1.47,4.79-1.74,3.08-5.66,4.32-7.73,7.19-.88,1.22-1.37,2.66-1.73,4.14-.6-.05-1.19-.16-1.76-.37-.38-.14-.78-.33-1.17-.23-.38.09-.64.43-.93.69-1.19,1.05-3.02.79-4.57.45-.27.24-.08.73.24.9.33.17.71.16,1.06.26.87.25,1.42,1.29,1.13,2.14-.04.12-.1.25-.06.37.1.27.49.2.77.14,1.27-.25,2.28,1.06,2.76,2.26.36.88.7,1.87,1.32,2.53.04,2.6.45,4.44.45,6.91,0,1.74-.21,3.79-.89,6.63-13.49.52-25.03.56-34.9.31,2.89-9.53,2.84-20.21,7.3-28.83.26-.49,2.45-.93,2.08,1.87-1.11,8.07-1.47,3.19-2.26,5.56-.59,1.79-1.26,5.13-1.1,5.21.31.19,1.81-.82,2.98-2.37.33-.43,1.35.13,1.68-.38.78-1.2.64-3.46.95-5.01.35-1.83,1.05-2.95.5-4.04-1.62-3.26.88-3,3.41-5.63,3.5-3.63,8.67,1.27,14.4-3.07,4.59-3.48,9.9-5.79,15.48-7.23.27-.06,3.42-5.3,4.1-7.85.5-1.87-1.66-.92-.65-2.4,1.27-1.88,4.92-1.71,5.16-1.75.7-.16-1.85,6.76-4.39,11.09ZM1835.14,166.11c-.21,1.3-.35,2.42-.41,3.43-.83-1.29-1.56-2.65-2.14-4.06.73.03,1.39.48,2.11.62.14.03.29.03.44.01ZM1886.28,50.89c-.23-.03-.46-.07-.66-.2-.29-.18-.45-.5-.59-.82-.53-1.17-.91-2.42-1.12-3.69-.03-.14-.05-.29.01-.43.22-.53.99-.07,1.54.08.28.08.55.05.81-.04-.11.54-.2,1.08-.2,1.63.02.78.21,1.54.46,2.3-.09.39-.16.78-.25,1.17Z"/>
    <path class="cls-1" d="M6.87,74.22c2.49-.55,5.46-.09,6.92,2,.66.96.95,2.16,1.74,3.02.91.98,2.3,1.3,3.59,1.63,3.75.95,7.39,2.32,10.83,4.07,1.86.95,3.74,2.08,4.85,3.85.63,1.01.93,2.29.78,3.46-.07.59.68.82.99,1.26.31.45,1.37,1.27,1.95,1.37,5.04.92,8.72,4.91,9.63,10,.05.29.03.84-.29.86-.66.87-1.31,1.74-1.97,2.61-.49.65-1,1.34-1.08,2.15-.15,1.43,1.07,2.69,1.14,4.13.03.65-.15,1.36.2,1.91.24.37.67.55,1.06.75,1.89.99,3.16,2.84,4.91,4.06,1.37.97,2.99,1.51,4.49,2.28,1.31.67,2.58,1.6,3.26,2.88.18.35.54.56.93.56.35,0,.7,0,1.05,0,.21,0,.38-.13.48-.31.22-.37.72-.59,1.13-.42.29-.71-.87-1-1.58-1.29-1.47-.59-1.68-2.62-2.84-3.71-1.15-1.08-3.17-1.16-3.87-2.57-.65-1.33.32-2.68,1.2-4.04,2.76.69,5.69-.05,8.48-1.33,1.88,1.23,3.48,2.88,4.64,4.79.41.67,1.38.25,2.05.6.67.35,1.03,1.48,1.81,1.45,4.89-.17,9.78,2.69,13.32,6.28,1.35,1.36,3.56,2.9,4.89,1.51-1.9-.51-3.46-2.1-3.94-4.01,2.45.2,5.12.49,6.89,2.2.84.81,1.41,1.88,2.11,2.82-1.96,4.93-6.14,21.15-6.14,21.15,0,0-1.9-15.31-3.13-14.57-1.23.74,1.76,14.46,1.76,14.46,0,0-14.25-20.58-14.46-18.16-.21,2.43,13.08,18.58,13.08,18.58,0,0-14.24-12.14-15.19-11.45s14.81,12.29,14.81,12.29c0,0-19.77-11.82-19.35-10.19.42,1.63,19.73,11.46,19.73,11.46,0,0,2.01.95,3.81.84s20.69-10.66,19.32-11.19c-1.37-.53-17.48,9.5-17.48,9.5,0,0,15.52-14,14.63-14.67-.95-.71-14.63,13.09-14.63,13.09,0,0,6.29-10.98,4.92-11.61-1.37-.63-6.76,11.4-6.76,11.4,0,0,4.6-14.51,5.76-20.15.26.26.53.5.85.7.71.43,1.54.62,2.31.93,1.54.62,2.86,1.77,3.72,3.19.89,1.46,7.72-.75,9.42-.82l11.54,1.9c1.07.69,2.73,1.63,4.58,2.65-.02.3-.13.58-.26.86-2.26-.86-4.01-1.45-4.17-1.28-.16.17,1.54.95,3.85,1.91-.25.5-.44,1.01-.23,1.65-2.87-.57-5.1-.96-5.25-.78-.16.21,2.45.88,5.72,1.62.11.14.24.29.39.44.86.87,1.97,1.45,3.16,1.74.71.17,1.42.35,2.13.52-5.39.53-12.9,1.31-16.08,2.36-4.73,1.56,11.86-.74,18.68-1.72.37.09.74.18,1.1.27-3.57,1.45-11.61,4.79-12.44,5.91-.49.66,10.28-3.95,13.97-5.54.56.14,1.12.28,1.68.41.21.05.39-.04.49-.17,3.4,2.75,14.81,11.95,14.81,11.33,0-.81-14.23-12.13-14.23-12.13,0,0,17.1,6.22,17.39,5.7.2-.36-9.14-3.71-14.05-5.29,4.34.89,10.54,2.13,10.43,1.88-.09-.2-3.94-1.19-7.48-2.07,5.83.5,13.22,1.07,13.07.79-.17-.33-9.51-1.26-14.86-1.77,4.19-.32,10.34-1.48,10.59-1.81.31-.42-7.33.31-11.57.74,5.27-1.44,15.34-4.29,14.9-4.9-.36-.51-7.15,1.57-12.35,3.25,3.07-1.28,6.27-2.7,6.38-3.05.07-.22-1.18.16-2.93.77,3.08-1.56,6.21-3.25,8.03-4.52.21.08.42.17.63.24.57.2,1.18.37,1.77.24.67-.14,1.2-.64,1.7-1.11,2.35-2.23,5.06-4.49,8.3-4.61,1.7-.07,3.36.47,5.06.54,1.05.04.8-.41,1.67-.95.54-.33,2.37-.56,2.63-1.15.68-.9-1.66-.47-4.48-.33-2.67.13-6.87-.9-8.76-.32-2.54.78-3.87,3.12-6.51,2.89-2.73-.24-4.96-2.29-7.61-3-3.08-.83-6.3.22-9.4.93-.84.19-1.69.36-2.54.51.06-2.44,0-4.38-.33-4.92-.41-.67-.64,1.78-.78,5.1-2.24.34-4.51.55-6.78.67-.53-.82-.97-1.39-1.28-1.54-.38-.19-.2.47.29,1.59-1.15.05-2.31.08-3.47.1-.37-.38-.64-.61-.75-.62-.12-.01-.02.22.23.62-1.73.02-3.46.02-5.18.02-2.88,0-5.81-.02-8.58-.83-3.99-1.18-7.38-3.97-11.41-4.99-1.32-.33-2.72-.48-3.92-1.13-1.44-.78-2.42-2.18-3.42-3.47-3.21-4.15-7.94-3.81-12.9-6.14-3.56-1.67-8.23-4.64-10.77-7.39-.22-.24-.63-1.32.65-1.6,1-.7,2.33-.96,3.44-1.53.99-.52,1.81-1.3,2.59-2.13h0c1.74.25,3.05-2.12,4.59-1.27,1.5.83,2.43,1.41,3.38,2.84.95,1.43,2.4,2.82,4.11,2.66.07-.41.11-.89-.19-1.18-.4-.39-1.07-.13-1.63-.18-1.07-.09-1.61-1.3-2.07-2.27-.59-1.26-1.42-2.44-2.56-3.24-.54-.38-1.15-.67-1.79-.83,1.11-.55,2.43-.75,4.16-.28,1.47.39,2.79,1.19,3.92,2.21,3.13,2.85,6.27,5.7,9.4,8.55,1.13,1.02,3.56,2.3,4.46,3.45.68.87-.24,1.68.79,2.22,1.19.63,2.73.11,4.33.16,1.59.05,3.24.65,4.54.31,1.67-.43,3.17-1.39,4.87-1.7,3.08-.57,6.09,1.05,8.81,2.61,1.52.88,3.59-1.2,5.11-.32.75.43,2.91.36,2.37-.32-.72-.92-1.74-1.17-2.74-1.36.17-.11.36-.23.58-.37,2.44-.1,8.33-.35,12.31-.69,1.8,4.18,6.26,12.04,6.26,12.04,0,0-7.12-9.57-7.81-8.94-.69.63,8.29,11.24,8.87,10.98.58-.26-.53-2.85-.53-2.85,0,0-3.23-7.4-5.48-11.35,1.69-.18,2.78-.37,2.63-.57-.18-.24-1.46-.31-3.15-.3-.62-.99-1.12-1.6-1.39-1.54-.25.05-.13.65.21,1.56-3.85.1-8.86.49-8.86.49,0,0,10.66-4.12,10.13-4.59-.32-.29-5.34,1.63-9.17,3.17,3.86-2.52,8.37-5.54,8.03-5.7-.59-.28-11.04,6.21-11.04,6.21,0,0,12.47-10.85,11.28-11.08-1.19-.24-12.27,10.61-12.27,10.61,0,0,11.04-18.68,10.33-18.68s-11.32,18.29-11.32,18.29c0,0,4.04-15.2,3.25-14.92-.57.2-2.64,7.82-3.74,12.02.28-2.59.57-5.62.36-5.64-.24-.03-.78,3.73-1.12,6.29-.14-4.64-.53-15.47-.97-14.84-.38.54-.24,8.23-.12,13.14-.77-3.86-1.88-9.08-2.18-8.98-.36.12,1,7.56,1.7,11.29-1.51-4.36-5.41-15.44-5.86-14.89-.55.67,5.66,17.46,5.66,17.46,0,0-2.29-3.12-4.84-6.51,0,0,0,0,0,0h0c-1.21-1.61-2.48-3.29-3.59-4.72,1.14-.89,1.85-1.52,1.75-1.62-.1-.1-.93.36-2.14,1.12-1.6-2.05-2.78-3.48-2.82-3.27-.03.2.91,1.66,2.26,3.62-.8.51-1.71,1.11-2.66,1.75-.67-.46-1.04-.58-.96-.19.03.16.15.38.31.62-3.75,2.53-7.87,5.44-7.87,5.44,0,0,.16-16.23-.69-15.45-.84.78,0,14.95,0,14.95,0,0-3.22-13.83-3.64-13.41-.42.42,2.74,13.51,2.74,13.51,0,0-7.31-16.6-7.71-15.05-.39,1.55,7.6,16.43,7.6,16.43,0,0-7.71-11.08-8.29-10.13-.42.69,4.33,6.65,7.01,9.93-3.91-2.66-6.76-7.23-8.82-11.65-.22-.48-.44-.96-.67-1.43.68-.4,1.31-.91,1.7-1.37,1.04-1.21.68-2.85,2.28-3.54,3.47-1.49,7.32-2.08,11.08-1.71.86.09,2.05-.03,2.13-.89-.4-.17-.74-.47-.97-.83-.34-.52-.17-1.2.3-1.6,1.29-1.07,1.26-3.62,2.73-4.71,1.94-1.44,5.19.53,6.94-1.14.3-.28.52-.65.86-.87.44-.28,1.01-.27,1.53-.25,1.28.06,2.55.11,3.83.17.44.02.91.03,1.29-.2.37-.23.76-1.43.26-1.12-3.06.93-6.33-1.23-9.47-.96.53-.44,1.08-.84,1.67-1.06,1.42-.52.93-2.66,1.8-3.9.49-.71,1.01-1.55.76-2.38-.03-.09-.07-.19-.15-.26,0-.48-5.38-7.87-5.58-7.08-.2.79,4,6.06,4,6.06,0,0-13.02-10.81-13.22-9.82-.2.99,12.71,10.35,12.71,10.35,0,0-10.17-4.25-10.09-3.74.08.51,9.94,4.15,9.94,4.15,0,0-15.28-3.6-15.08-2.69s15.6,3.32,15.6,3.32c0,0-13.14,2.1-12.86,2.61.25.46,10.98-1.51,13.4-1.97-.31.59-.69,1.13-1.07,1.68-.48.68-.96,1.37-1.44,2.05-.31.45-.64.9-1.08,1.22-.43.31-.95.47-1.37.78-.3.23-.55.53-.86.74-.05.04-.11.06-.17.09-.47-.2-.92-.49-1.41-.66-2.19-.77-4.48,1-5.7,2.98-.45.72-.83,1.49-1.13,2.28-.19.5-.35,1.01-.66,1.45-.87,1.22-2.56,1.43-4.06,1.54-.17-.87-1.2-1.35-2.08-1.24-1.65.2-3.2,1.65-4.63,2.42-1.1.59-7.21,2.41-10.1,3.59-2,.02-3.99.74-5.42,2.14-.28.17-.56.34-.83.51,2.61-2.15,4.78-4.06,4.3-3.92-.93.27-7.14,5.31-8.78,6.64-.1.06-.21.12-.31.19.95-1.47,9.54-14.82,9.02-15.42-.55-.63-9.7,15.4-9.7,15.4,0,0,4.04-11,3.4-11.08s-4.3,10.98-4.3,10.98c0,0,2.72-13.51,2.17-13.59-.55-.08-2.88,13.43-2.88,13.43,0,0-1.11-8.99-2.22-15.21.33-.28.87-.7,1.57-1.08,1.19-.63,1.19-.75,1.66-2.61.47-1.86,1.9-3.76,2.69-5.11.79-1.35,1.54-.47,2.34-.95.79-.48.24-.71,1.66-1.03s2.53.28,3.56-.44c.74-.52.91-.29.91-.36,1.84,1.54,4.16,3.39,4.16,2.93,0-.61-3.32-3.24-4.56-4.2,2.08.9,7.31,2.07,7.51,1.72.26-.46-6.12-1.63-6.12-1.63,0,0,10.08.57,9.82,0-.19-.41-6.31-.65-9.73-.75,1.93-.32,4.63-.81,4.78-1.04.24-.36-6.25.71-6.25.71,0,0,4.55-1.7,4.63-2.06.08-.36-4.24,1.23-4.24,1.23,0,0,7.11-6.22,6.73-6.65-.36-.41-6.81,5.82-6.81,5.82,0,0,2.73-4.27,2.45-4.59-.28-.32-3.13,4.75-3.13,4.75,0,0,2.73-10.29,2.06-10.25-.67.04-2.65,10.45-2.65,10.45,0,0,.51-7.09,0-7.2-.51-.12-.51,7.4-.51,7.4,0,0-1.87-11.41-2.53-11.41-.45,0,2.18,12.36,2.18,12.36,0,0-5.58-8.04-6.21-7.76-.52.23,4,5.66,5.64,7.59-1.89-1.17-6.08-3.69-6.24-3.31-.21.48,6.28,3.9,6.28,3.9,0,0-8.39-3.33-8.87-2.69-.48.63,8.5,3.01,8.5,3.01,0,0-8.66-1.43-8.5-.95s8.87,1.37,8.87,1.37c.72.15,1.02.03,1.11-.15.24.21.55.48.9.77-.41,0-.96.04-1.59-.12-1.27-.32-1.35.4-3.4.87-2.06.48-3.88-.08-5.3,1.9-.36.5-1.56,1.93-1.52,1.33-.05-.59.27-1.06.1-1.65-.78-1.55-3.1-.93-4.66-.19-1.56.75-4.04,1.02-4.47-.66-.15-.58.05-1.19.13-1.79.2-1.69,1.2-3.6-.08-4.76-1.11-1.01-4.4-1.34-5.79-1.85-1.59-.58-4.47-2.66-6.11-3.84-1.46-1.04-2.34-.95-2.51-.59-.05.5-1.25-.11-1.11.32.23.69,2,.76,2.84,1.39,1.87,1.39,3.63,3.13,5.37,3.69,1.25.4,3.03.92,4.04,1.84-.19.45-.6.65-.26,1.44.39.91.56,1.84.04,2.67-.54.85-.58,2.05-.77,3.04-.43,2.26,3.2,2.64,4.83,4.26,1.9,1.89.38,5.45-2.11,6.46-2.48,1.01-5.3.31-7.88-.41-3.06-.85-6.12-1.69-9.17-2.54-1.98-.55-4.04-1.15-5.5-2.59-2.45-2.44-2.45-6.53-4.7-9.15-1.6-1.86-4.29-2.94-4.96-5.3-.28-.99-.14-2.08-.56-3.02-.42-.94-1.32-1.56-2.19-2.11-3.54-2.24-7.32-4.1-11.26-5.54-6.22-2.28-12.76-3.49-19.32-4.47v5.92c1.54.17,3.05.77,4.5,1.37,2.83,1.17,5.65,2.33,8.48,3.5.88.36,1.8.75,2.45,1.45.95,1.01,1.18,2.49,1.86,3.69.84,1.49,2.32,2.49,3.75,3.44,5.81,3.86,11.62,7.71,17.44,11.57,1.31.87,2.66,1.78,3.48,3.12.52.85.8,1.83,1.35,2.65,1.34,1.97,4.06,2.7,4.68,5.34.35,1.5-1.4,2.57-2.56,1.57-6.73-5.79-8.37-3.17-9.01-4.01-2.92-3.82-10.86-6.72-13.14-9.02-1.79-1.81,2.25-3.14-.95-5.15-1.22-.76,2.85-1.03,1.54-3.32v-.02s-1.64-1.31-1.64-1.31c-.43-.34-1.03-.41-1.5-.13-1.48.87-3.99-.39-5.89.16-1.15.33-1.97,1.32-3,1.92-3.5,2.04-7.66-.82-11.52-2.02-.1-.03-.21-.05-.31-.08v11.36c.12,0,.23,0,.34-.05,2.18-.84,4.25-2.02,6.53-2.52ZM155.25,132.92c1.52.73,2.99,1.57,4.53,2.25-4.92,2.21-16.51,8.22-16.51,8.22,0,0,8.64-6.97,11.98-10.47ZM152.78,131.88c.59.2,1.17.44,1.73.7-2.58,2.04-7.09,5.95-9.99,8.59,2.01-2.9,5.06-7.4,6.33-9.7.66.07,1.3.2,1.92.41ZM142.96,132.48c2.22-.51,4.72-1.14,7.11-1.06-1.9,2.58-5.28,8.05-6.9,10.61,1.58-3.25,4.85-10.07,4.19-10.12-.78-.06-4.09,8.13-5.11,10.69.11-1.77.49-6.11.7-10.12ZM134.44,142.66c-.46-.32-.85-.7-1.16-1.16,1.98.77,3.93,1.51,5.34,2.04-1.23-.25-2.68-.56-4.18-.88ZM139.49,144.61c-.52-.17-1.06-.32-1.59-.48.85.17,1.6.31,2.19.41-.18.02-.38.04-.6.07ZM139.17,136.26c-.02-.51,1.17-.67,1.15-1.17-.05-1.05.6-1.98,1.55-2.34-.09,3.34-.11,6.85-.14,8.8-.56-2.02-1.57-5.25-1.69-4.93-.12.31.75,3.69,1.17,5.55-.58-1.26-1.57-3.4-2.64-5.61.2-.08.4-.18.6-.31ZM137.53,136.86c1.17,2.17,2.35,4.3,3.11,5.68-1.06-1.35-2.69-3.44-4.36-5.53.41-.04.83-.08,1.25-.15ZM133.75,138.25c.46-.66,1.02-.95,1.65-1.1,1.99,2.45,4,4.88,5.04,6.11-1.24-.81-4.05-2.36-7-3.92.13-.35.24-.72.32-1.09ZM133.07,140.19c1.47.78,2.93,1.54,4.22,2.21-1.29-.54-2.81-1.17-4.33-1.78.01-.15.05-.29.11-.42ZM129.41,137.26c-.89-.45-1.72-.87-2.47-1.23.98-.03,1.94.41,2.47,1.23ZM112.98,110.04c-.45-.07-.88-.16-1.31-.28,2.84-.33,7.34-.9,7.23-1.15-.16-.37-6.17.72-6.17.72,0,0,2.96-.96,6.12-2.04,1.18.69,3.04,1.63,4.87,2.51-3.43-.12-7.3.77-10.74.24ZM117.72,106.5c-2.78.83-5.16,1.57-5.16,1.57,0,0,5.08-2.17,8.33-3.77.33.32.68.65,1.05.98-1.17.32-2.44.69-3.66,1.05-.34-.09-.57-.12-.64-.06-.05.04-.01.12.08.22ZM119.94,106.92c.95-.33,1.88-.65,2.73-.96,1.73,1.56,3.67,3.2,5.28,4.54-2.58-1.22-5.85-2.72-8.01-3.57ZM129.78,110.65c-.07.05-.13.08-.2.12-1.24-1.22-3.41-3.35-5.54-5.33.61-.23,1.13-.44,1.53-.62,1.67,2.33,3.28,4.54,4.21,5.83ZM122.19,100.05c.94,1.35,2.02,2.89,3.1,4.4-.49.1-1.13.25-1.86.44-.45-.42-.9-.82-1.33-1.2.92-.49,1.5-.87,1.43-1.01-.07-.15-.85.09-1.98.53-.62-.55-1.2-1.03-1.69-1.42.84-.61,1.63-1.21,2.32-1.73ZM119.05,102.38c.34.4.76.85,1.25,1.33-3.53,1.48-8.68,3.94-8.68,3.94,0,0,3.91-2.72,7.43-5.27ZM71.45,82.23c.55-.75,1.1-1.54,1.64-2.35.94,5.93,2.46,13.31,2.46,13.31,0,0-2.59-5.87-4.7-10.17.21-.26.41-.53.61-.79ZM70.02,83.97c1.97,4.76,4.82,10.94,4.82,10.94,0,0-3.67-5.82-6.41-9.53.57-.39,1.1-.87,1.6-1.4ZM62.55,85.34c.89.12,1.69.65,2.57.84.76.16,1.49.06,2.18-.21,2.59,3.87,7.06,9.46,7.06,9.46,0,0,.27.36.64.68-1.18.72-2.36,1.43-3.53,2.14-1,.61-2.06,1.24-3.23,1.29-1.47.07-2.82-.76-4-1.63-3.96-2.91-7.33-6.64-9.83-10.88,2.39,1.63,5.28-2.1,8.15-1.71Z"/>
    <path class="cls-1" d="M68.24,61.76c.48.48,7.56,3.13,7.68,2.73.12-.4-6.33-2.65-6.33-2.65,0,0,11.04-2.06,10.77-2.3-.28-.24-10.92,1.66-10.92,1.66,0,0,6.93-3.48,6.53-3.72-.4-.24-6.65,3.09-6.65,3.09,0,0,7.6-6.89,7.32-7.16-.28-.28-7.84,6.58-7.84,6.58,0,0,7.05-11.21,6.77-11.68-.28-.47-7.6,11.87-7.6,11.87-.28.48-.2,1.11.28,1.58Z"/>
    <path class="cls-1" d="M64.87,59.59c.4.22.68.26.87.21.67.42,1.06,0,1.01-.28-.9-6.07-1.97-15.05-2.43-14.99-1.06.15,1.64,13.56,1.64,13.56,0,0-8.55-14.41-9.08-14.04-.38.27,4.26,7.73,6.84,11.8-1.54-1.94-3.32-4.08-3.61-4.03-.28.04.78,1.72,1.78,3.22-2.94-2.85-6.68-6.4-6.81-6.08-.13.32,3.6,4.05,6.6,6.99-2.32-1.76-6.11-4.58-6.61-4.44-.72.2,8.43,6.77,8.43,6.77,0,0-9.74-6.14-9.97-5.58-.24.55,11.32,6.89,11.32,6.89Z"/>
    <path class="cls-1" d="M134.22,71.9c.67,0-4.03-2.58-5.51-3.39,2.25.12,8.3-.79,8.2-1.16-.12-.47-7.88.75-7.88.75,0,0,7.28-3.87,6.77-3.99-.38-.09-4.48,2.13-6.59,3.3,2.14-1.99,7.18-6.73,6.87-6.98-.4-.32-7.65,7.23-7.65,7.23,0,0,5.44-8.3,5.12-8.38-.32-.08-5.49,8.06-5.49,8.06,0,0,5.37-11.43,5.05-11.35-.32.08-5.17,10.56-5.17,10.56,0,0,1.61-10,.94-9.27-.67.73-1.43,10.82-1.43,10.82-.04.55,5.98,3.81,6.77,3.81Z"/>
    <path class="cls-1" d="M126.5,54.72c-.67-.16,0,10.89,0,10.89,0,0-1.39-6.53-1.82-6.41-.44.12,1.46,6.69,1.46,6.69,0,0-5.38-9.5-5.82-9.38-.44.12,6.17,10.57,6.17,10.57,1.17,1.86.67-12.19,0-12.35Z"/>
    <path class="cls-1" d="M68.71,49.6c-.74.16-1.53,9.29-1.53,9.29.05,1.9,2.27-9.45,1.53-9.29Z"/>
    <path class="cls-1" d="M157.22,127.63c1.11-.16,21.14-15.99,19.87-16.55-1.27-.55-17.57,13.62-17.57,13.62,0,0,15.04-20.58,13.62-20.27s-14.88,19.94-14.88,19.94c0,0,4.91-19.71,4.2-19.47-.71.24-5.15,18.21-5.15,18.21,0,0,1.66-24.46.55-22.64-1.11,1.82-1.58,22.96-1.58,22.96,0,0-3.01-21.06-3.96-20.76-.95.3,3.01,20.76,3.01,20.76.32,1.66.79,4.35,1.9,4.2Z"/>
    <path class="cls-1" d="M174.79,117.97c-.87-.4-14.8,9.1-14.8,9.1-2.22,2.14,14.01-4.91,13.62-5.62-.4-.71-11.16,4.83-11.16,4.83,0,0,13.22-7.92,12.35-8.32Z"/>
    <path class="cls-1" d="M79.37,127.34c-.79,1.06,8.07,19.16,8.07,19.16,2.38,3.27-7.28-20.21-8.07-19.16Z"/>
    <path class="cls-1" d="M98.64,142.65s-2.11,3.11-1.9,3.22c.21.11,7.97-9.5,7.07-9.82-.9-.32-5.17,6.6-5.17,6.6Z"/>
    <path class="cls-1" d="M91.67,130.88c-.55.71-.71,11.64-.71,11.64.79,2.53,1.27-12.35.71-11.64Z"/>
    <path class="cls-1" d="M140.31,117.97c-.93.66,11.89,8.26,12.29,8.15.3-.08-.44-.63-.44-.63,0,0-10.93-8.18-11.86-7.52Z"/>
    <path class="cls-1" d="M164.42,110.29c-.48.17-2.85,6.49-2.85,6.49-.75,3.56,3.64-6.77,2.85-6.49Z"/>
    <path class="cls-1" d="M134.02,75.28c-.15.13-.17.35-.22.54-.13.44-1.27.42-.95.83.45.74,1.31-.48,1.74-.74.31-.19.68-.27,1.04-.32,1.59-.23,3.23-.14,4.76-.63.18-.06.39-.26.26-.39-2.11-.04-4.22.15-6.29.59-.12.02-.24.05-.33.13Z"/>
    <path class="cls-1" d="M1302.4,31.63c3.83,2.55,7.66,4.68,12.87,5.85,5.21,1.17,1.91.85,5.11,3.4,3.19,2.55,5.85,7.76,5.53,8.62-.32.85-2.21,2.05-2.02,2.45.22.46,2.18.29,4.31.29s1.69,2.21,6.26,2.74,4.92-2.69,6.62-3.75c1.7-1.06,8.36-1.22,7.34-1.99-3.11-2.35-5.32-2.45-5.74-2.23-.43.21-2.45,2.98-4.89,3.3-2.45.32-2.25-.21-1.97-.86.33-.79.77-1.45,3.43-4.43,2.66-2.98,7.72-5.82,10.17-9.23,2.45-3.4,2.55-2.02,6.28-2.66,3.72-.64,7.45-1.6,7.02-2.77-.43-1.17-5.74,1.6-10.64,1.17-4.89-.43-7.45,3.4-10.64,5.96-3.19,2.55-9.57,8.72-10.64,8.3-1.06-.43-5.32-4.68-7.87-7.23s-3.19-5.11-7.02-4.89c-3.83.21-11.46-2.61-15.53-4.47-1-.46-1.81-.11,2.02,2.45Z"/>
    <path class="cls-1" d="M1353.91,100.93c10.42,1.07,23.15-.18,27.94-3.07s8.05-4.88,10.13-2.8c2.08,2.08,3.35,4.61,5.06,4.97,1.72.36,2.62.36,4.16,1.72,1.54,1.36,6.78,2.71,11.39,1.72,4.61-.99,10.13-3.44,7.41-3.92-2.71-.49-12.84-1.32-9.58-1.68,3.25-.36,7.41-3.25,12.3-4.34,4.88-1.08,3.25.72,10.85,2.35,7.59,1.63,12.3,2.53,18.81,3.44,6.51.9,7.41-1.08,4.34-1.27s-11.39-1.81-17.54-3.85c-6.15-2.05-7.25-2.58-12.33-5.12-2.87-1.44-5.75-.43-9.91,1.56-4.16,1.99-9.22,4.88-10.85,3.93-1.63-.95-7.05-5.56-13.56-4.75-6.51.81-8.74,4.58-17.03,7.07-7.25,2.18-20.13,2.42-20.13,2.42-5.07.13-3.52,1.41-1.45,1.63Z"/>
  </g>
</svg>